<svg width="169" height="50" viewBox="0 0 169 50" fill="none" xmlns="http://www.w3.org/2000/svg">
<g filter="url(#filter0_d_8495_33666)">
<path d="M66.2213 48.0186C63.9245 48.0186 61.9219 47.5845 60.2133 46.7162C58.5047 45.8479 57.1743 44.6015 56.2219 42.9769C55.2696 41.3524 54.7935 39.4337 54.7935 37.221C54.7935 34.9802 55.2696 33.0616 56.2219 31.465C57.1743 29.8405 58.5047 28.5941 60.2133 27.7258C61.9219 26.8575 63.9245 26.4233 66.2213 26.4233C68.5181 26.4233 70.5207 26.8575 72.2293 27.7258C73.9379 28.5941 75.2543 29.8405 76.1787 31.465C77.131 33.0616 77.6071 34.9802 77.6071 37.221C77.6071 39.4337 77.131 41.3524 76.1787 42.9769C75.2543 44.6015 73.9379 45.8479 72.2293 46.7162C70.5207 47.5845 68.5181 48.0186 66.2213 48.0186ZM66.2213 42.5148C67.3417 42.5148 68.266 42.0946 68.9942 41.2543C69.7225 40.4141 70.0866 39.0696 70.0866 37.221C70.0866 35.3443 69.7225 33.9999 68.9942 33.1876C68.266 32.3473 67.3417 31.9272 66.2213 31.9272C65.0729 31.9272 64.1346 32.3473 63.4064 33.1876C62.6781 33.9999 62.314 35.3443 62.314 37.221C62.314 39.0696 62.6781 40.4141 63.4064 41.2543C64.1346 42.0946 65.0729 42.5148 66.2213 42.5148Z" fill="url(#paint0_linear_8495_33666)"/>
<path d="M88.3444 48.0186C85.6555 48.0186 83.6668 47.2904 82.3784 45.8339C81.1179 44.3494 80.4877 42.0946 80.4877 39.0696V30.2466C80.4877 27.7538 81.7341 26.5074 84.227 26.5074C85.4314 26.5074 86.3557 26.8295 86.9999 27.4737C87.6441 28.1179 87.9662 29.0422 87.9662 30.2466V39.2797C87.9662 41.2963 88.8345 42.3047 90.5711 42.3047C91.5795 42.3047 92.4057 41.9406 93.0499 41.2123C93.6942 40.4841 94.0163 39.5177 94.0163 38.3133V30.2466C94.0163 27.7538 95.2627 26.5074 97.7555 26.5074C98.9599 26.5074 99.8843 26.8295 100.528 27.4737C101.173 28.1179 101.495 29.0422 101.495 30.2466V44.1533C101.495 46.6742 100.29 47.9346 97.8816 47.9346C95.7248 47.9346 94.6528 47.8506 94.3727 45.8339C93.0282 47.9066 90.9212 48.0186 88.3444 48.0186Z" fill="url(#paint1_linear_8495_33666)"/>
<path d="M107.695 47.5565C106.687 47.5565 105.931 47.2343 105.427 46.5901C104.923 45.9459 104.698 45.1757 104.755 44.2794C104.839 43.355 105.245 42.5008 105.973 41.7165L114.208 32.3893H107.401C105.553 32.3893 104.628 31.465 104.628 29.6164C104.628 27.7958 105.553 26.8855 107.401 26.8855H119.291C120.412 26.8855 121.252 27.2076 121.812 27.8518C122.372 28.496 122.625 29.2663 122.568 30.1626C122.512 31.0589 122.12 31.8992 121.392 32.6834L113.115 42.0526H120.342C122.218 42.0526 123.157 42.9629 123.157 44.7835C123.157 46.6321 122.218 47.5565 120.342 47.5565H107.695Z" fill="url(#paint2_linear_8495_33666)"/>
<path d="M136.33 48.0186C133.809 48.0186 131.624 47.5845 129.776 46.7162C127.955 45.8199 126.554 44.5594 125.574 42.9349C124.594 41.3104 124.104 39.3917 124.104 37.179C124.104 35.0783 124.566 33.2156 125.49 31.5911C126.442 29.9665 127.731 28.7061 129.355 27.8098C131.008 26.8855 132.885 26.4233 134.985 26.4233C137.058 26.4233 138.851 26.8575 140.363 27.7258C141.904 28.5941 143.08 29.8405 143.892 31.465C144.733 33.0616 145.153 34.9382 145.153 37.0949C145.153 38.1873 144.509 38.7335 143.22 38.7335H131.246C131.498 40.0779 132.058 41.0443 132.927 41.6325C133.795 42.2207 134.999 42.5148 136.54 42.5148C137.128 42.5148 137.828 42.4447 138.641 42.3047C139.453 42.1646 140.223 41.9406 140.951 41.6325C141.848 41.2963 142.604 41.2963 143.22 41.6325C143.836 41.9406 144.242 42.4307 144.438 43.103C144.663 43.7472 144.635 44.4194 144.354 45.1196C144.102 45.7919 143.584 46.31 142.8 46.6742C141.82 47.1503 140.769 47.4864 139.649 47.6825C138.557 47.9066 137.45 48.0186 136.33 48.0186ZM135.321 31.255C134.201 31.255 133.277 31.5911 132.548 32.2633C131.848 32.9355 131.4 33.9159 131.204 35.2043H139.019C138.935 33.8879 138.571 32.9075 137.926 32.2633C137.31 31.5911 136.442 31.255 135.321 31.255Z" fill="url(#paint3_linear_8495_33666)"/>
<path d="M159.214 48.0186C156.693 48.0186 154.509 47.5845 152.66 46.7162C150.84 45.8199 149.439 44.5594 148.459 42.9349C147.478 41.3104 146.988 39.3917 146.988 37.179C146.988 35.0783 147.45 33.2156 148.375 31.5911C149.327 29.9665 150.615 28.7061 152.24 27.8098C153.893 26.8855 155.769 26.4233 157.87 26.4233C159.943 26.4233 161.735 26.8575 163.248 27.7258C164.788 28.5941 165.965 29.8405 166.777 31.465C167.617 33.0616 168.037 34.9382 168.037 37.0949C168.037 38.1873 167.393 38.7335 166.105 38.7335H154.131C154.383 40.0779 154.943 41.0443 155.811 41.6325C156.679 42.2207 157.884 42.5148 159.424 42.5148C160.013 42.5148 160.713 42.4447 161.525 42.3047C162.337 42.1646 163.108 41.9406 163.836 41.6325C164.732 41.2963 165.488 41.2963 166.105 41.6325C166.721 41.9406 167.127 42.4307 167.323 43.103C167.547 43.7472 167.519 44.4194 167.239 45.1196C166.987 45.7919 166.469 46.31 165.685 46.6742C164.704 47.1503 163.654 47.4864 162.533 47.6825C161.441 47.9066 160.335 48.0186 159.214 48.0186ZM158.206 31.255C157.086 31.255 156.161 31.5911 155.433 32.2633C154.733 32.9355 154.285 33.9159 154.089 35.2043H161.903C161.819 33.8879 161.455 32.9075 160.811 32.2633C160.195 31.5911 159.326 31.255 158.206 31.255Z" fill="url(#paint4_linear_8495_33666)"/>
<rect x="27.8552" y="48.0146" width="10.3843" height="48.0145" rx="5.19215" transform="rotate(180 27.8552 48.0146)" fill="url(#paint5_linear_8495_33666)"/>
<rect x="46.1545" y="48.0146" width="10.3843" height="38.1957" rx="5.19215" transform="rotate(180 46.1545 48.0146)" fill="url(#paint6_linear_8495_33666)"/>
<path d="M52.0964 21.9672C54.2711 20.8572 56.9519 22.4183 56.9519 24.8599C56.9519 26.0002 56.342 27.0473 55.3299 27.5726C51.1393 29.7475 39.7275 35.2654 31.8137 35.2654C23.8617 35.2654 12.378 29.6942 8.23744 27.5414C7.26403 27.0353 6.67545 26.0269 6.67545 24.9298C6.67545 22.5216 9.4456 20.9082 11.5909 22.0024C16.9945 24.7586 25.7168 28.6563 31.8137 28.6563C37.921 28.6563 46.6933 24.7253 52.0964 21.9672Z" fill="url(#paint7_linear_8495_33666)"/>
<path d="M3.63147 26.818C1.60088 23.4251 4.68532 17.8474 9.72325 18.5928" stroke="url(#paint8_linear_8495_33666)" stroke-width="3.25841" stroke-linecap="round"/>
</g>
<defs>
<filter id="filter0_d_8495_33666" x="0.683404" y="0" width="168.04" height="49.3905" filterUnits="userSpaceOnUse" color-interpolation-filters="sRGB">
<feFlood flood-opacity="0" result="BackgroundImageFix"/>
<feColorMatrix in="SourceAlpha" type="matrix" values="0 0 0 0 0 0 0 0 0 0 0 0 0 0 0 0 0 0 127 0" result="hardAlpha"/>
<feOffset dy="0.685981"/>
<feGaussianBlur stdDeviation="0.342991"/>
<feComposite in2="hardAlpha" operator="out"/>
<feColorMatrix type="matrix" values="0 0 0 0 0 0 0 0 0 0 0 0 0 0 0 0 0 0 0.25 0"/>
<feBlend mode="normal" in2="BackgroundImageFix" result="effect1_dropShadow_8495_33666"/>
<feBlend mode="normal" in="SourceGraphic" in2="effect1_dropShadow_8495_33666" result="shape"/>
</filter>
<linearGradient id="paint0_linear_8495_33666" x1="111.415" y1="26.4233" x2="111.415" y2="48.0186" gradientUnits="userSpaceOnUse">
<stop stop-color="#7995FF"/>
<stop offset="1" stop-color="#3259EA"/>
</linearGradient>
<linearGradient id="paint1_linear_8495_33666" x1="111.415" y1="26.4233" x2="111.415" y2="48.0186" gradientUnits="userSpaceOnUse">
<stop stop-color="#7995FF"/>
<stop offset="1" stop-color="#3259EA"/>
</linearGradient>
<linearGradient id="paint2_linear_8495_33666" x1="111.415" y1="26.4233" x2="111.415" y2="48.0186" gradientUnits="userSpaceOnUse">
<stop stop-color="#7995FF"/>
<stop offset="1" stop-color="#3259EA"/>
</linearGradient>
<linearGradient id="paint3_linear_8495_33666" x1="111.415" y1="26.4233" x2="111.415" y2="48.0186" gradientUnits="userSpaceOnUse">
<stop stop-color="#7995FF"/>
<stop offset="1" stop-color="#3259EA"/>
</linearGradient>
<linearGradient id="paint4_linear_8495_33666" x1="111.415" y1="26.4233" x2="111.415" y2="48.0186" gradientUnits="userSpaceOnUse">
<stop stop-color="#7995FF"/>
<stop offset="1" stop-color="#3259EA"/>
</linearGradient>
<linearGradient id="paint5_linear_8495_33666" x1="33.0474" y1="48.0146" x2="33.0474" y2="96.0292" gradientUnits="userSpaceOnUse">
<stop stop-color="#7995FF"/>
<stop offset="1" stop-color="#3259EA"/>
</linearGradient>
<linearGradient id="paint6_linear_8495_33666" x1="51.3467" y1="48.0146" x2="51.3467" y2="86.2104" gradientUnits="userSpaceOnUse">
<stop stop-color="#7995FF"/>
<stop offset="1" stop-color="#3259EA"/>
</linearGradient>
<linearGradient id="paint7_linear_8495_33666" x1="31.8137" y1="35.294" x2="31.8137" y2="3.27836" gradientUnits="userSpaceOnUse">
<stop stop-color="#FFC118"/>
<stop offset="1" stop-color="white"/>
</linearGradient>
<linearGradient id="paint8_linear_8495_33666" x1="6.86097" y1="18.5536" x2="3.80064" y2="26.7104" gradientUnits="userSpaceOnUse">
<stop stop-color="#FFE49B"/>
<stop offset="1" stop-color="#FFC219"/>
</linearGradient>
</defs>
</svg>
